<mxfile host="app.diagrams.net" agent="Mozilla/5.0 (Windows NT 10.0; Win64; x64) AppleWebKit/537.36 (KHTML, like Gecko) Chrome/133.0.0.0 Safari/537.36 Edg/133.0.0.0" version="26.0.15">
  <diagram name="第 1 页" id="QDuFCRk04ksnjHRH1iTl">
    <mxGraphModel dx="2226" dy="1547" grid="0" gridSize="10" guides="1" tooltips="1" connect="1" arrows="1" fold="1" page="0" pageScale="1" pageWidth="827" pageHeight="1169" math="0" shadow="0">
      <root>
        <mxCell id="0" />
        <mxCell id="1" parent="0" />
        <mxCell id="A6Snk8jEqc06XMojqZFg-16" value="&lt;font style=&quot;font-size: 22px;&quot;&gt;固定水平桌面&lt;/font&gt;" style="shape=cube;whiteSpace=wrap;html=1;boundedLbl=1;backgroundOutline=1;darkOpacity=0.05;darkOpacity2=0.1;" vertex="1" parent="1">
          <mxGeometry x="290" y="320" width="380" height="296" as="geometry" />
        </mxCell>
        <mxCell id="A6Snk8jEqc06XMojqZFg-34" style="edgeStyle=orthogonalEdgeStyle;rounded=0;orthogonalLoop=1;jettySize=auto;html=1;entryX=0.898;entryY=0.441;entryDx=0;entryDy=0;entryPerimeter=0;" edge="1" parent="1" source="A6Snk8jEqc06XMojqZFg-3" target="A6Snk8jEqc06XMojqZFg-6">
          <mxGeometry relative="1" as="geometry">
            <mxPoint x="83" y="-34" as="targetPoint" />
          </mxGeometry>
        </mxCell>
        <mxCell id="A6Snk8jEqc06XMojqZFg-35" value="" style="edgeStyle=orthogonalEdgeStyle;rounded=0;orthogonalLoop=1;jettySize=auto;html=1;" edge="1" parent="1" source="A6Snk8jEqc06XMojqZFg-3" target="A6Snk8jEqc06XMojqZFg-21">
          <mxGeometry relative="1" as="geometry" />
        </mxCell>
        <mxCell id="A6Snk8jEqc06XMojqZFg-3" value="" style="image;aspect=fixed;html=1;points=[];align=center;fontSize=12;image=img/lib/azure2/other/Defender_Meter.svg;" vertex="1" parent="1">
          <mxGeometry x="84.99999999999999" y="23" width="78" height="78" as="geometry" />
        </mxCell>
        <mxCell id="A6Snk8jEqc06XMojqZFg-4" value="" style="verticalLabelPosition=bottom;html=1;verticalAlign=top;align=center;strokeColor=none;fillColor=#00BEF2;shape=mxgraph.azure.laptop;pointerEvents=1;" vertex="1" parent="1">
          <mxGeometry x="-296" y="-118" width="171" height="106" as="geometry" />
        </mxCell>
        <mxCell id="A6Snk8jEqc06XMojqZFg-6" value="" style="sketch=0;aspect=fixed;pointerEvents=1;shadow=0;dashed=0;html=1;strokeColor=none;labelPosition=center;verticalLabelPosition=bottom;verticalAlign=top;align=center;fillColor=#00188D;shape=mxgraph.mscae.enterprise.usb" vertex="1" parent="1">
          <mxGeometry x="-41" y="-82.02000000000001" width="74" height="34.04" as="geometry" />
        </mxCell>
        <mxCell id="A6Snk8jEqc06XMojqZFg-31" value="" style="edgeStyle=orthogonalEdgeStyle;rounded=0;orthogonalLoop=1;jettySize=auto;html=1;strokeWidth=4;" edge="1" parent="1" source="A6Snk8jEqc06XMojqZFg-8" target="A6Snk8jEqc06XMojqZFg-21">
          <mxGeometry relative="1" as="geometry" />
        </mxCell>
        <mxCell id="A6Snk8jEqc06XMojqZFg-8" value="" style="image;aspect=fixed;perimeter=ellipsePerimeter;html=1;align=center;shadow=0;dashed=0;spacingTop=3;image=img/lib/active_directory/secure.svg;" vertex="1" parent="1">
          <mxGeometry x="77.52" y="339" width="92.96" height="145.25" as="geometry" />
        </mxCell>
        <mxCell id="A6Snk8jEqc06XMojqZFg-9" value="&lt;font style=&quot;font-size: 22px;&quot;&gt;电机固定结构&lt;/font&gt;" style="rounded=0;whiteSpace=wrap;html=1;" vertex="1" parent="1">
          <mxGeometry x="118" y="-665" width="241" height="159" as="geometry" />
        </mxCell>
        <mxCell id="A6Snk8jEqc06XMojqZFg-12" value="" style="edgeStyle=orthogonalEdgeStyle;rounded=0;orthogonalLoop=1;jettySize=auto;html=1;" edge="1" parent="1" source="A6Snk8jEqc06XMojqZFg-10" target="A6Snk8jEqc06XMojqZFg-11">
          <mxGeometry relative="1" as="geometry" />
        </mxCell>
        <mxCell id="A6Snk8jEqc06XMojqZFg-13" value="" style="edgeStyle=orthogonalEdgeStyle;rounded=0;orthogonalLoop=1;jettySize=auto;html=1;" edge="1" parent="1" source="A6Snk8jEqc06XMojqZFg-10" target="A6Snk8jEqc06XMojqZFg-9">
          <mxGeometry relative="1" as="geometry" />
        </mxCell>
        <mxCell id="A6Snk8jEqc06XMojqZFg-10" value="&lt;font style=&quot;font-size: 16px;&quot;&gt;刚度变化量测量&lt;/font&gt;&lt;div&gt;&lt;font style=&quot;font-size: 16px;&quot;&gt;传感器&lt;/font&gt;&lt;/div&gt;" style="ellipse;whiteSpace=wrap;html=1;" vertex="1" parent="1">
          <mxGeometry x="161.5" y="-794" width="154" height="93" as="geometry" />
        </mxCell>
        <mxCell id="A6Snk8jEqc06XMojqZFg-11" value="&lt;font style=&quot;font-size: 16px;&quot;&gt;数据分析计算机&lt;/font&gt;" style="rounded=1;whiteSpace=wrap;html=1;" vertex="1" parent="1">
          <mxGeometry x="421" y="-777.5" width="171" height="60" as="geometry" />
        </mxCell>
        <mxCell id="A6Snk8jEqc06XMojqZFg-1" value="" style="rounded=1;whiteSpace=wrap;html=1;strokeWidth=2;fillColor=#bac8d3;strokeColor=#23445d;" vertex="1" parent="1">
          <mxGeometry x="293" y="116" width="213" height="216" as="geometry" />
        </mxCell>
        <mxCell id="A6Snk8jEqc06XMojqZFg-19" value="" style="rounded=0;whiteSpace=wrap;html=1;fillColor=#f5f5f5;strokeColor=#4D4D4D;gradientColor=#b3b3b3;strokeWidth=4;" vertex="1" parent="1">
          <mxGeometry x="74" y="197" width="219" height="26" as="geometry" />
        </mxCell>
        <mxCell id="A6Snk8jEqc06XMojqZFg-2" value="" style="verticalLabelPosition=bottom;aspect=fixed;html=1;verticalAlign=top;align=center;outlineConnect=0;shape=mxgraph.fluid_power.x10070;points=[[1,0.38,0],[1,0.5,0],[1,0.62,0]];direction=west;fillColor=#999999;strokeWidth=4;" vertex="1" parent="1">
          <mxGeometry x="218" y="158.54" width="180" height="102.92" as="geometry" />
        </mxCell>
        <mxCell id="A6Snk8jEqc06XMojqZFg-21" value="" style="rounded=0;whiteSpace=wrap;html=1;" vertex="1" parent="1">
          <mxGeometry x="121" y="197" width="6" height="26" as="geometry" />
        </mxCell>
        <mxCell id="A6Snk8jEqc06XMojqZFg-26" value="" style="rounded=0;whiteSpace=wrap;html=1;fillColor=#f5f5f5;fontColor=#333333;strokeColor=#666666;" vertex="1" parent="1">
          <mxGeometry x="162" y="43" width="288" height="26" as="geometry" />
        </mxCell>
        <mxCell id="A6Snk8jEqc06XMojqZFg-27" value="" style="rounded=0;whiteSpace=wrap;html=1;fillColor=#f5f5f5;fontColor=#333333;strokeColor=#666666;" vertex="1" parent="1">
          <mxGeometry x="335" y="69" width="115" height="45" as="geometry" />
        </mxCell>
        <mxCell id="A6Snk8jEqc06XMojqZFg-33" style="edgeStyle=orthogonalEdgeStyle;rounded=0;orthogonalLoop=1;jettySize=auto;html=1;entryX=0.92;entryY=0.5;entryDx=0;entryDy=0;entryPerimeter=0;" edge="1" parent="1" source="A6Snk8jEqc06XMojqZFg-6" target="A6Snk8jEqc06XMojqZFg-4">
          <mxGeometry relative="1" as="geometry" />
        </mxCell>
        <mxCell id="A6Snk8jEqc06XMojqZFg-36" value="&lt;font style=&quot;font-size: 20px;&quot;&gt;电机&lt;/font&gt;" style="text;strokeColor=none;align=center;fillColor=none;html=1;verticalAlign=middle;whiteSpace=wrap;rounded=0;strokeWidth=3;" vertex="1" parent="1">
          <mxGeometry x="398" y="124" width="105" height="71" as="geometry" />
        </mxCell>
        <mxCell id="A6Snk8jEqc06XMojqZFg-37" value="&lt;font style=&quot;font-size: 20px;&quot;&gt;电机输出轴&lt;/font&gt;" style="text;strokeColor=none;align=center;fillColor=none;html=1;verticalAlign=middle;whiteSpace=wrap;rounded=0;" vertex="1" parent="1">
          <mxGeometry x="-236" y="156" width="168" height="30" as="geometry" />
        </mxCell>
        <mxCell id="A6Snk8jEqc06XMojqZFg-39" value="" style="endArrow=classic;html=1;rounded=0;exitX=1;exitY=0.75;exitDx=0;exitDy=0;" edge="1" parent="1" source="A6Snk8jEqc06XMojqZFg-37">
          <mxGeometry width="50" height="50" relative="1" as="geometry">
            <mxPoint x="5" y="267" as="sourcePoint" />
            <mxPoint x="63" y="210" as="targetPoint" />
          </mxGeometry>
        </mxCell>
        <mxCell id="A6Snk8jEqc06XMojqZFg-40" value="&lt;font style=&quot;font-size: 20px;&quot;&gt;静态配重&lt;/font&gt;" style="text;strokeColor=none;align=center;fillColor=none;html=1;verticalAlign=middle;whiteSpace=wrap;rounded=0;" vertex="1" parent="1">
          <mxGeometry x="3" y="468" width="85" height="46" as="geometry" />
        </mxCell>
        <mxCell id="A6Snk8jEqc06XMojqZFg-41" value="&lt;font style=&quot;font-size: 20px;&quot;&gt;千分表&lt;/font&gt;" style="text;strokeColor=none;align=center;fillColor=none;html=1;verticalAlign=middle;whiteSpace=wrap;rounded=0;" vertex="1" parent="1">
          <mxGeometry x="142.5" y="-17" width="82" height="30" as="geometry" />
        </mxCell>
        <mxCell id="A6Snk8jEqc06XMojqZFg-42" value="Text" style="text;strokeColor=none;align=center;fillColor=none;html=1;verticalAlign=middle;whiteSpace=wrap;rounded=0;" vertex="1" parent="1">
          <mxGeometry x="-565" y="-47.97999999999999" width="60" height="30" as="geometry" />
        </mxCell>
        <mxCell id="A6Snk8jEqc06XMojqZFg-43" value="&lt;span style=&quot;font-size: 20px;&quot;&gt;计算机计算分析&lt;/span&gt;" style="text;strokeColor=none;align=center;fillColor=none;html=1;verticalAlign=middle;whiteSpace=wrap;rounded=0;" vertex="1" parent="1">
          <mxGeometry x="-282" y="1" width="153.5" height="30" as="geometry" />
        </mxCell>
        <mxCell id="A6Snk8jEqc06XMojqZFg-44" value="&lt;span style=&quot;font-size: 20px;&quot;&gt;电机固定结构框&lt;/span&gt;" style="text;strokeColor=none;align=center;fillColor=none;html=1;verticalAlign=middle;whiteSpace=wrap;rounded=0;" vertex="1" parent="1">
          <mxGeometry x="582" y="172" width="171" height="30" as="geometry" />
        </mxCell>
        <mxCell id="A6Snk8jEqc06XMojqZFg-45" value="" style="endArrow=classic;html=1;rounded=0;exitX=1;exitY=0.75;exitDx=0;exitDy=0;" edge="1" parent="1">
          <mxGeometry width="50" height="50" relative="1" as="geometry">
            <mxPoint x="584" y="189" as="sourcePoint" />
            <mxPoint x="511" y="212" as="targetPoint" />
          </mxGeometry>
        </mxCell>
        <mxCell id="A6Snk8jEqc06XMojqZFg-46" value="" style="endArrow=classic;html=1;rounded=0;exitX=1;exitY=0.75;exitDx=0;exitDy=0;" edge="1" parent="1">
          <mxGeometry width="50" height="50" relative="1" as="geometry">
            <mxPoint x="453" y="186" as="sourcePoint" />
            <mxPoint x="380" y="209" as="targetPoint" />
          </mxGeometry>
        </mxCell>
      </root>
    </mxGraphModel>
  </diagram>
</mxfile>
